<?xml version="1.0" encoding="utf-8"?>
<!-- Generator: Adobe Illustrator 19.0.0, SVG Export Plug-In . SVG Version: 6.00 Build 0)  -->
<svg version="1.1" id="Layer_1" xmlns="http://www.w3.org/2000/svg" xmlns:xlink="http://www.w3.org/1999/xlink" x="0px" y="0px"
	 viewBox="0 0 100 400" style="enable-background:new 0 0 100 400;" xml:space="preserve">
<style type="text/css">
	.st0{fill:#464952;stroke:#000000;stroke-width:0.25;stroke-miterlimit:10;}
	.st1{fill:#464952;stroke:#000000;stroke-width:0.5;stroke-miterlimit:10;}
	.st2{fill:#4E505C;stroke:#000000;stroke-width:0.25;stroke-miterlimit:10;}
	.st3{fill:#BFB077;stroke:#000000;stroke-width:0.5;stroke-miterlimit:10;}
	.st4{fill:#9B8285;stroke:#000000;stroke-width:0.5;stroke-miterlimit:10;}
	.st5{fill:#BFB077;stroke:#000000;stroke-width:0.25;stroke-miterlimit:10;}
	.st6{fill:#A59469;stroke:#000000;stroke-width:0.5;stroke-miterlimit:10;}
	.st7{fill:#A59469;stroke:#000000;stroke-width:0.25;stroke-miterlimit:10;}
	.st8{fill:#BEAA6D;stroke:#000000;stroke-width:0.25;stroke-miterlimit:10;}
	.st9{fill:#A69D62;stroke:#000000;stroke-width:0.25;stroke-miterlimit:10;}
	.st10{fill:#BAAB72;stroke:#000000;stroke-width:0.25;stroke-miterlimit:10;}
	.st11{fill:none;stroke:#000000;stroke-width:0.25;stroke-miterlimit:10;}
	.st12{fill:#BDAF70;stroke:#000000;stroke-width:0.25;stroke-miterlimit:10;}
	.st13{fill:#8D9FA3;stroke:#000000;stroke-width:0.5;stroke-miterlimit:10;}
	.st14{fill:#B6AD76;stroke:#000000;stroke-width:0.25;stroke-miterlimit:10;}
	.st15{fill:#4E515A;stroke:#000000;stroke-width:0.25;stroke-miterlimit:10;}
	.st16{fill:#40424E;stroke:#000000;stroke-width:0.25;stroke-miterlimit:10;}
	.st17{fill:#3E4148;stroke:#000000;stroke-width:0.25;stroke-miterlimit:10;}
</style>
<polygon id="XMLID_91_" class="st0" points="28.7,389.2 28.6,164.6 29.8,164.6 "/>
<polygon id="XMLID_68_" class="st1" points="57,334.2 28.7,389.3 29.5,163 43.7,163 44,183.7 57,183.8 "/>
<polygon id="XMLID_94_" class="st2" points="33,176.5 28,172.7 28,168.3 42.2,178.8 42.3,181.8 33.9,175.4 "/>
<polygon id="XMLID_110_" class="st2" points="55.1,197.1 28.1,176.8 28.1,173.6 36.2,179.7 38.5,179.6 51.8,189.5 55.1,189.5 "/>
<polygon id="XMLID_119_" class="st2" points="39.9,190 28.1,181 28.1,177.7 55.2,197.8 55.1,203.7 41.5,193.4 41.4,194.1 
	55.1,204.5 55.1,223.8 53.3,222.5 53.3,216.1 43.5,208.7 43.6,206.3 37.5,201.7 37.5,192.9 39.8,194.7 "/>
<polygon id="XMLID_95_" class="st2" points="43.3,177.8 43.1,178.7 32.4,170.7 33.8,170.7 "/>
<polygon id="XMLID_151_" class="st2" points="37.6,179 36.4,179.1 33.5,176.9 34,176.3 "/>
<polygon id="XMLID_150_" class="st2" points="45.8,172.4 42.8,173.3 32,165.3 36.3,165.3 "/>
<path id="XMLID_3_" class="st3" d="M46.9,90.9h4.9c0,0-0.5-2.5-2.4-2.5C47.2,88.4,46.9,90.9,46.9,90.9z"/>
<rect id="XMLID_2_" x="46.7" y="93.6" class="st4" width="5.1" height="48.5"/>
<path id="XMLID_4_" class="st3" d="M51.6,90.4c0.1,0,0.2,0.1,0.2,0.2l0.4,1.1c0,0,0.4,2.2-0.1,2.2c-0.4,0-5.2,0-5.7,0
	c-0.5,0-0.1-2.2-0.1-2.2l0.4-1.1c0-0.1,0.1-0.2,0.2-0.2H51.6z"/>
<rect id="XMLID_5_" x="46.2" y="147" class="st5" width="6" height="0.7"/>
<path id="XMLID_11_" class="st6" d="M52,143.6h-5.6l0.1-0.1c0.2-0.2,0.2-0.5,0-0.6l-0.1-0.1H52l0,0C51.8,143,51.8,143.4,52,143.6
	L52,143.6z"/>
<rect id="XMLID_26_" x="46.2" y="142.2" class="st3" width="6" height="0.7"/>
<path id="XMLID_9_" class="st5" d="M53.6,148.6l-8.7,0v-0.6c0-0.1,0.1-0.2,0.3-0.2h8.1c0.2,0,0.3,0.1,0.3,0.2V148.6z"/>
<path id="XMLID_10_" class="st7" d="M52,147h-5.6l0.1-0.1c0.2-0.2,0.2-0.5,0-0.6l-0.1-0.1H52l0,0C51.8,146.4,51.8,146.8,52,147
	L52,147z"/>
<path id="XMLID_8_" class="st5" d="M54.5,149.5l-10.5,0v-0.8c0-0.2,0.1-0.3,0.3-0.3h9.8c0.2,0,0.3,0.1,0.3,0.3V149.5z"/>
<rect id="XMLID_6_" x="46.2" y="143.6" class="st5" width="6" height="2.6"/>
<path id="XMLID_53_" class="st8" d="M27,162h15.7v-1.3H26.9c-0.2,0-0.3,0.1-0.4,0.3l0,0c-0.1,0.2-0.1,0.5,0,0.6l0,0
	C26.6,161.9,26.8,162,27,162z"/>
<path id="XMLID_54_" class="st9" d="M27.5,163h15.1V162H27.5c-0.2,0-0.3,0.1-0.4,0.2l0,0c-0.1,0.1-0.1,0.3,0,0.5l0,0
	C27.2,162.9,27.3,163,27.5,163z"/>
<path id="XMLID_128_" class="st8" d="M71.3,162H55.6v-1.3h15.7c0.2,0,0.3,0.1,0.4,0.3l0,0c0.1,0.2,0.1,0.5,0,0.6l0,0
	C71.7,161.9,71.5,162,71.3,162z"/>
<path id="XMLID_122_" class="st9" d="M70.8,163H55.6V162h15.1c0.2,0,0.3,0.1,0.4,0.2l0,0c0.1,0.1,0.1,0.3,0,0.5l0,0
	C71.1,162.9,70.9,163,70.8,163z"/>
<rect id="XMLID_118_" x="55.6" y="149.1" class="st10" width="14.7" height="10"/>
<path id="XMLID_117_" class="st11" d="M59.5,149.5c-0.3-0.4-2.8,0.4-3.5,1.6c-0.5,0.9-0.6,3.1,0.1,4.5c0.4,0.8,3.1,1.7,3.4,1.7
	c1.3,0,1.9,1,1.6,1.8c0.3,0,1.2-0.9,0.8-1.7c-0.3-0.5-1.3-1.2-1.3-1.2"/>
<path id="XMLID_116_" class="st10" d="M59.4,149.5c0,0-1.7,1.1-2.1,1.6c-0.8,0.9-0.7,3.2,0.3,4.2c0.5,0.5,1.9,1.1,2.6,1.1
	c0.9,0.1,2.9-0.4,3.7-0.8c0.7-0.4,2.2-0.3,3.1,0.2c1.2,0.6,2.5,2.2,3,3c0,0-1.5-3.1-2.3-3.8c-0.8-0.6-2.7-0.9-3.5-0.7
	c-0.9,0.2-2.5,0.7-3.4,0.9c-0.8,0.1-2.2-0.8-2.7-1.6c-0.6-1-0.1-2.2,0.3-2.9C58.5,150.4,59.4,149.5,59.4,149.5z"/>
<circle id="XMLID_115_" class="st11" cx="60" cy="152" r="1.3"/>
<circle id="XMLID_114_" class="st11" cx="65.5" cy="156.8" r="0.6"/>
<path id="XMLID_113_" class="st10" d="M61.4,150.8c-0.1-0.1,1.9-1.2,2.9-1.3c0.7-0.1,1.9,0.3,2.5,0.5c0.6,0.2,1.8,1,2.2,1.3
	c0.4,0.3,0.9,0.1,1.1-0.4c0.1-0.2,0.4-0.5,0.6,0c0.2,0.4-0.3,1.3-0.7,1.5c-0.9,0.3-2.6-0.9-3.4-1.2c-0.8-0.2-2.6-0.3-3.4,0.1
	c-0.3,0.2-1.1,1-1.1,1c-0.1,0,2.8-1.2,4.3-0.4c1.1,0.5,2.8,2.4,2.6,2.4c-0.7-0.6-2.4-1.7-3.8-1.6c-1.6,0.1-3.2,1.9-3.2,2.2
	C62.4,153.6,62.1,152.1,61.4,150.8z"/>
<path id="XMLID_112_" class="st11" d="M67.8,154.4c0-0.1-1.3-1.1-2.6-1.1c-1.9,0-2.5,1.1-2.5,1.1s1.1-0.4,2.5-0.4
	C66.6,153.9,67.8,154.4,67.8,154.4z"/>
<path id="XMLID_111_" class="st11" d="M60.2,149.5c0-0.3,1.4,0.6,1.6,1.2"/>
<path id="XMLID_93_" class="st10" d="M72.1,160.7H55.6v-1.7h16.4c0.2,0,0.4,0.1,0.5,0.4l0,0c0.1,0.2,0.1,0.6,0,0.8l0,0
	C72.4,160.6,72.2,160.7,72.1,160.7z"/>
<path id="XMLID_92_" class="st10" d="M69.7,153.7c0,0-0.5,1.1-1,1.4c-0.2,0.2,0.9-0.3,1-0.1c0.1,0.2-0.4,0.7-0.3,0.8
	c0.4,0.3,1.4-1.2,1.1-1.5c-0.1-0.1-0.5,0.2-0.6,0.1C69.8,154.3,69.8,153.8,69.7,153.7z"/>
<path id="XMLID_82_" class="st12" d="M70.6,149.5h-15v-1h15c0.2,0,0.3,0.1,0.4,0.2l0,0c0.1,0.1,0.1,0.3,0,0.5l0,0
	C71,149.5,70.8,149.5,70.6,149.5z"/>
<polygon id="XMLID_83_" class="st13" points="57,334.2 70.4,341.5 70.4,163 56.8,163 "/>
<path id="XMLID_51_" class="st14" d="M41.7,160.7v28l2.3,2.3h10.6l2.5-2.3v-28H41.7z M49.2,183c-1.6,0-2.9-1.3-2.9-2.9
	c0-1.6,1.3-2.9,2.9-2.9s2.9,1.3,2.9,2.9C52.1,181.8,50.8,183,49.2,183z M49.2,171.7c-1.6,0-2.9-1.3-2.9-2.9c0-1.6,1.3-2.9,2.9-2.9
	s2.9,1.3,2.9,2.9C52.1,170.4,50.8,171.7,49.2,171.7z"/>
<path id="XMLID_72_" class="st15" d="M55.8,149.6h-13l-0.1,38.7l1.7,1.8h9.8l1.7-1.6L55.8,149.6z M49.2,183c-1.6,0-2.9-1.3-2.9-2.9
	c0-1.6,1.3-2.9,2.9-2.9s2.9,1.3,2.9,2.9C52.1,181.8,50.8,183,49.2,183z M49.2,171.7c-1.6,0-2.9-1.3-2.9-2.9c0-1.6,1.3-2.9,2.9-2.9
	s2.9,1.3,2.9,2.9C52.1,170.4,50.8,171.7,49.2,171.7z"/>
<polygon id="XMLID_43_" class="st0" points="51.4,160 47.1,160 46,159.3 45.9,152.6 52.6,152.6 52.5,159.3 "/>
<rect id="XMLID_44_" x="42.7" y="155.5" class="st16" width="13.1" height="0.7"/>
<rect id="XMLID_45_" x="47.8" y="155.5" class="st17" width="2.8" height="0.7"/>
<polygon id="XMLID_66_" class="st11" points="54.1,190.2 44.3,190.2 42.7,188.5 42.8,160.7 55.8,160.7 55.8,188.6 "/>
<path id="XMLID_69_" class="st0" d="M51.3,177.1v-5.2c0.8-0.6,1.7-1.8,1.7-3.1s-0.9-2.4-1.7-3.1v-6.2h-4.1v6.3
	c-0.8,0.7-1.6,1.8-1.6,3s0.8,2.4,1.6,3v5.3c-0.8,0.7-1.6,1.8-1.6,3c0,1.3,0.8,2.4,1.6,3v7.1h4.1v-7.1c0.8-0.6,1.7-1.8,1.7-3.1
	C53,178.9,52.1,177.8,51.3,177.1z M46.4,168.8c0-1.6,1.3-2.9,2.9-2.9s2.9,1.3,2.9,2.9c0,1.6-1.3,2.9-2.9,2.9S46.4,170.4,46.4,168.8z
	 M49.2,183c-1.6,0-2.9-1.3-2.9-2.9c0-1.6,1.3-2.9,2.9-2.9s2.9,1.3,2.9,2.9C52.1,181.8,50.8,183,49.2,183z"/>
<rect id="XMLID_7_" x="28" y="149.1" class="st10" width="14.7" height="10"/>
<polygon id="XMLID_46_" class="st2" points="41.7,163 28.1,163 28.1,164.6 36.6,164.6 41.7,168.6 "/>
<polygon id="XMLID_67_" class="st2" points="41.7,173.5 41.7,175.8 34,170.1 31.6,170.1 28.1,167.5 28.1,165.3 30.8,165.3 "/>
<path id="XMLID_74_" class="st11" d="M38.8,149.5c0.3-0.4,2.8,0.4,3.5,1.6c0.5,0.9,0.6,3.1-0.1,4.5c-0.4,0.8-3.1,1.7-3.4,1.7
	c-1.3,0-1.9,1-1.6,1.8c-0.3,0-1.2-0.9-0.8-1.7c0.3-0.5,1.3-1.2,1.3-1.2"/>
<path id="XMLID_75_" class="st10" d="M38.9,149.5c0,0,1.7,1.1,2.1,1.6c0.8,0.9,0.7,3.2-0.3,4.2c-0.5,0.5-1.9,1.1-2.6,1.1
	c-0.9,0.1-2.9-0.4-3.7-0.8c-0.7-0.4-2.2-0.3-3.1,0.2c-1.2,0.6-2.5,2.2-3,3c0,0,1.5-3.1,2.3-3.8c0.8-0.6,2.7-0.9,3.5-0.7
	c0.9,0.2,2.5,0.7,3.4,0.9c0.8,0.1,2.2-0.8,2.7-1.6c0.6-1,0.1-2.2-0.3-2.9C39.8,150.4,38.9,149.5,38.9,149.5z"/>
<circle id="XMLID_76_" class="st11" cx="38.7" cy="152" r="1.3"/>
<circle id="XMLID_77_" class="st11" cx="32.7" cy="156.8" r="0.6"/>
<path id="XMLID_78_" class="st10" d="M36.8,150.8c0.1-0.1-1.9-1.2-2.9-1.3c-0.7-0.1-1.9,0.3-2.5,0.5c-0.6,0.2-1.8,1-2.2,1.3
	c-0.4,0.3-0.9,0.1-1.1-0.4c-0.1-0.2-0.4-0.5-0.6,0c-0.2,0.4,0.3,1.3,0.7,1.5c0.9,0.3,2.6-0.9,3.4-1.2c0.8-0.2,2.6-0.3,3.4,0.1
	c0.3,0.2,1.1,1,1.1,1c0.1,0-2.8-1.2-4.3-0.4c-1.1,0.5-2.8,2.4-2.6,2.4c0.7-0.6,2.4-1.7,3.8-1.6c1.6,0.1,3.2,1.9,3.2,2.2
	C35.9,153.6,36.2,152.1,36.8,150.8z"/>
<path id="XMLID_88_" class="st11" d="M30.5,154.4c0-0.1,1.3-1.1,2.6-1.1c1.9,0,2.5,1.1,2.5,1.1s-1.1-0.4-2.5-0.4
	C31.7,153.9,30.5,154.4,30.5,154.4z"/>
<path id="XMLID_90_" class="st11" d="M38.5,149.5c0-0.3-1.4,0.6-1.6,1.2"/>
<path id="XMLID_48_" class="st10" d="M26.2,160.7h16.4v-1.7H26.2c-0.2,0-0.4,0.1-0.5,0.4l0,0c-0.1,0.2-0.1,0.6,0,0.8l0,0
	C25.8,160.6,26,160.7,26.2,160.7z"/>
<path id="XMLID_89_" class="st10" d="M28.6,153.7c0,0,0.5,1.1,1,1.4c0.2,0.2-0.9-0.3-1-0.1c-0.1,0.2,0.4,0.7,0.3,0.8
	c-0.4,0.3-1.4-1.2-1.1-1.5c0.1-0.1,0.5,0.2,0.6,0.1C28.5,154.3,28.5,153.8,28.6,153.7z"/>
<path id="XMLID_42_" class="st12" d="M27.6,149.5h15v-1h-15c-0.2,0-0.3,0.1-0.4,0.2l0,0c-0.1,0.1-0.1,0.3,0,0.5l0,0
	C27.3,149.5,27.5,149.5,27.6,149.5z"/>
<polygon id="XMLID_84_" class="st13" points="70.3,341.7 29.1,389.1 57,334.2 "/>
<polygon id="XMLID_120_" class="st2" points="31.9,188.7 32.8,189.3 32.8,198.1 31.9,197.4 "/>
<polygon id="XMLID_153_" class="st2" points="33.8,190 34.6,190.7 34.6,199.5 33.8,198.8 "/>
<polygon id="XMLID_154_" class="st2" points="35.6,191.5 36.4,192.1 36.4,200.9 35.6,200.2 "/>
<polygon id="XMLID_152_" class="st2" points="30,209.4 28,209.4 28,200.5 29.9,200.5 31.8,198.4 42.9,206.6 42.8,209 52.7,216.5 
	52.7,222.7 55.1,224.6 55.2,229.9 52.3,229.9 39.3,220 39.3,216.6 "/>
</svg>
