<?xml version="1.0" encoding="utf-8"?>
<!-- Generator: Adobe Illustrator 19.0.0, SVG Export Plug-In . SVG Version: 6.00 Build 0)  -->
<svg version="1.1" id="Layer_1" xmlns="http://www.w3.org/2000/svg" xmlns:xlink="http://www.w3.org/1999/xlink" x="0px" y="0px"
	 viewBox="0 0 500 300" style="enable-background:new 0 0 500 300;" xml:space="preserve">
<style type="text/css">
	.st0{fill:#FFFFFF;}
	.st1{fill:url(#XMLID_8_);}
	.st2{fill:#FCFDF9;}
	.st3{fill:url(#XMLID_9_);stroke:#000000;stroke-width:0.25;stroke-miterlimit:10;}
	.st4{fill:#87B2DC;}
	.st5{fill:url(#XMLID_13_);stroke:#000000;stroke-width:0.25;stroke-miterlimit:10;}
	.st6{fill:url(#XMLID_14_);stroke:#000000;stroke-width:0.25;stroke-miterlimit:10;}
	.st7{fill:url(#XMLID_15_);stroke:#000000;stroke-width:0.25;stroke-miterlimit:10;}
</style>
<circle id="XMLID_4_" class="st0" cx="127.3" cy="196" r="96.7"/>
<radialGradient id="XMLID_8_" cx="275.6667" cy="45.6667" r="6.3333" gradientUnits="userSpaceOnUse">
	<stop  offset="0" style="stop-color:#139092"/>
	<stop  offset="6.665567e-003" style="stop-color:#2F939B;stop-opacity:0.9781"/>
	<stop  offset="2.178554e-002" style="stop-color:#4F99AC;stop-opacity:0.9285"/>
	<stop  offset="3.882753e-002" style="stop-color:#629EBA;stop-opacity:0.8726"/>
	<stop  offset="5.828536e-002" style="stop-color:#6FA2C5;stop-opacity:0.8087"/>
	<stop  offset="8.159728e-002" style="stop-color:#78A5CE;stop-opacity:0.7322"/>
	<stop  offset="0.1126" style="stop-color:#7DA7D3;stop-opacity:0.6303"/>
	<stop  offset="0.1828" style="stop-color:#7EA8D5;stop-opacity:0.4"/>
	<stop  offset="0.2435" style="stop-color:#74A1C2;stop-opacity:0.4446"/>
	<stop  offset="0.3553" style="stop-color:#6399A8;stop-opacity:0.5267"/>
	<stop  offset="0.4713" style="stop-color:#549294;stop-opacity:0.6118"/>
	<stop  offset="0.5907" style="stop-color:#478D85;stop-opacity:0.6995"/>
	<stop  offset="0.7148" style="stop-color:#3D8A7B;stop-opacity:0.7906"/>
	<stop  offset="0.8468" style="stop-color:#378875;stop-opacity:0.8875"/>
	<stop  offset="1" style="stop-color:#348873"/>
</radialGradient>
<circle id="XMLID_2_" class="st1" cx="275.7" cy="45.7" r="6.3"/>
<path id="XMLID_3_" class="st2" d="M273.2,43c-1.2,1-3.3,3.8-3.3,3.8s0.4-3.9,2.1-5.8c0.9-1,4.1-2.2,4.5-0.6
	C277.2,43.1,274,42.4,273.2,43z"/>
<linearGradient id="XMLID_9_" gradientUnits="userSpaceOnUse" x1="39.4089" y1="160.5" x2="59.4128" y2="160.5">
	<stop  offset="0" style="stop-color:#7EA8D5"/>
	<stop  offset="1" style="stop-color:#119192"/>
</linearGradient>
<polygon id="XMLID_7_" class="st3" points="48.5,148 48.5,151 47.9,152.1 47,151.1 45.7,153.9 42.9,159 40.8,168.8 39.4,170.4 
	39.5,173.2 40.3,172.3 42.2,172.7 42.4,176.8 42.8,177.7 42.7,181.7 43.2,182.6 44.6,181.6 45.8,181.3 46.2,182.3 48.5,181.2 
	48.5,179 49.8,177.9 51.1,177.8 53.3,176.3 55.4,171.2 55.7,165.6 58.5,155.8 59.4,147.2 58.9,146 58.2,146.3 58.4,144.6 
	59.2,140.2 58.9,138.4 58,139 57.5,138.4 55.6,139.5 55.5,140.3 50.4,145.8 49.9,146.8 "/>
<g id="XMLID_5_">
	<polyline id="XMLID_21_" class="st4" points="97.3,138.7 91.8,144.4 86.5,150.5 	"/>
	<path id="XMLID_20_" class="st4" d="M97.4,138.7c0,0-0.5,0.9-1.5,2.1c-0.3,0.3-0.5,0.6-0.8,0.9c-0.3,0.3-0.7,0.6-1.1,0.9
		c-0.4,0.3-0.7,0.6-1.1,1c-0.3,0.3-0.7,0.8-0.9,1.2c-0.3,0.4-0.6,0.8-0.9,1.2c-0.3,0.4-0.6,0.8-0.9,1.1c-0.6,0.7-1.2,1.4-1.7,1.9
		c-0.5,0.5-1,0.9-1.4,1.2c-0.4,0.3-0.6,0.4-0.6,0.4l-0.1-0.1c0,0,0.1-0.2,0.3-0.6c0.2-0.4,0.6-0.9,1-1.5c0.4-0.6,1-1.3,1.6-2
		c0.3-0.3,0.7-0.7,1-1c0.3-0.4,0.7-0.7,1.1-1c0.4-0.3,0.8-0.6,1.1-1c0.3-0.4,0.6-0.7,0.9-1.1c0.3-0.4,0.5-0.8,0.8-1.1
		c0.3-0.3,0.6-0.6,0.8-0.9C96.4,139.2,97.3,138.6,97.4,138.7L97.4,138.7z"/>
</g>
<g id="XMLID_11_">
	<polyline id="XMLID_18_" class="st4" points="93,151.4 87.8,157.4 82.8,163.8 	"/>
	<path id="XMLID_17_" class="st4" d="M93,151.4c0,0-0.4,1-1.3,2.2c-0.2,0.3-0.5,0.6-0.8,0.9c-0.3,0.3-0.7,0.6-1,0.9
		c-0.4,0.3-0.7,0.6-1,1c-0.3,0.4-0.6,0.8-0.9,1.2c-0.3,0.4-0.5,0.9-0.8,1.3c-0.3,0.4-0.6,0.8-0.8,1.2c-0.5,0.8-1.1,1.4-1.6,2
		c-0.5,0.6-1,1-1.3,1.3c-0.3,0.3-0.5,0.5-0.5,0.5l-0.1-0.1c0,0,0.1-0.2,0.3-0.6c0.2-0.4,0.5-0.9,0.9-1.6c0.4-0.6,0.9-1.4,1.5-2.1
		c0.3-0.4,0.6-0.7,1-1.1c0.3-0.4,0.7-0.7,1.1-1.1c0.4-0.4,0.8-0.7,1.1-1.1c0.3-0.4,0.6-0.8,0.9-1.2c0.3-0.4,0.5-0.8,0.8-1.1
		c0.3-0.3,0.5-0.6,0.8-0.9C92.1,151.9,93,151.3,93,151.4L93,151.4z"/>
</g>
<linearGradient id="XMLID_13_" gradientUnits="userSpaceOnUse" x1="58.5176" y1="252.9251" x2="413.326" y2="-44.7944">
	<stop  offset="0" style="stop-color:#7EA8D5"/>
	<stop  offset="0.5484" style="stop-color:#119192"/>
	<stop  offset="0.7742" style="stop-color:#096963"/>
	<stop  offset="1" style="stop-color:#072827"/>
</linearGradient>
<path id="XMLID_10_" class="st5" d="M91.4,271.6l1.2,1l-0.8,1l-1.8-0.1l-0.2,0.7l2,0.1l14.6,0.3l1.6,1l12.1-0.5l2,0.9l1.8,0.1
	l1.1,0.9l-3.6,3l-2.3,1.3h-4l0,0l-5.2-1l-2.4-1l-5.8-0.5l6.6,2.7l0.7,0.7l1.7-0.2l-0.2,0.6l0.8,0.7l3.2-0.4l0.4,1.6l1.9,0.4l3.3,1.5
	l0.4,2.9h3.6h1l0.3-0.1l14.6-1.1l9.3-2.5l4.3-2.4l2.6-0.2l3.9-2.3l-1.3-0.4l4.8-1.9l1.4,1.9h1.1h0.3l2.1-1.2l0.5-1l1.3,0.4l15.3-8.3
	l7.5-5.6l1.9-1.9l3.2-0.7l16.2-16l16.3-18.2l3.8-6.1l-0.6-1.2l7.1-8.7l-1.5,0.5l-13.3,13.8l15.6-18.4l2.8-3.9l0.4-1.5l-1,0.5
	l-2.9,2.9l9.3-13.4l-8.5,8.9l-5.3,5.9l0.8-1.7l5.3-6.6l7.8-12.5l-3.2,3.3l-4.1,4.3l2.3-4.2l-1.1-0.2l1.2-1.9l0.1-0.6l0.8-2.8V183
	l2-2.1V180l-0.3,0.4l-5.9,8l5.2-8.3l-0.2-0.8l-1.5,0.5l-2.8,2.6l1.8-1.9l0.3-1l-0.9,0.3l-0.7,0.4l4.1-5.1l-0.5-0.7l-1.3,0.9
	l-9.4,7.6l0.6-1.8l-2.1,0.1l2.2-1.7l3.4-3.1l0.3,0.8l1.9-0.6l0.1-1.8l-2.3-0.3V174l36.8-26.8l1.2-1.2l-27.6,19.2l0.7-1.3l35.7-26
	l0-0.8l4.3-3.8l-0.2-1.2l-30.5,20l-13.4,6.3V158l-8.5,6.5l0.3-0.7l30.6-23.9l31.6-20.8V118l-1.3,1.1l-31.5,20.2l-27,18.4l0.4-1.3
	l12-9.3l20.5-14.3l0.6-1.3l1.3-0.6l1,0.2l12.9-6l0.9,0.4h1.8l10.8-8.5l0.7-1.9l1.8-0.1l1.3-1.2l0.4-1.1l1.7-0.5l13.4-8.8l0.1-0.8
	l-4.7,1.7l-6.2,3.1l-6.8,4l-30.1,16.4l-6.7,4.8l-1.3-0.5l9.8-7.6l19.4-11.4l0.8-1.7l0.3,0.2l1.8-1.5V109l30.8-15.8l1.3,0.3H331
	l7.5-6.3l1.1-2l-7.5,2.9l-1.8,0.5l-1.3,1.3l-1.8,0.4l-5.6,2.3l-3,0.1V92l6.9-4l2.4,0.3l1.6-0.9l0.3-1.1l2.2-0.2l2.8-2.6l1.8-0.2
	l3.6-2.4l0.3-0.6l1.4-0.2l4.1-2.4l1.8,0l1.3-1.7l1.3,0.3l2.9-1.8l1.1-0.2l2.9-3l2.2-0.1l3-2.3l0.4-1.1l1.8-0.1l4.2-2.8l0.8,0.7
	l1.8-1.9l1,0.4l2.5-1.4l0.8-2.9l1.4-0.2l2-0.8l0.7-1.8l4-2.3L385,56l2-2l0.4,0.7c0,0-0.7,1.1-0.8,1.2c-0.1,0.1,0.8,0.6,0.8,0.6
	l1.3,0l3.6-0.7c0,0,0.1,0.6,0,0.6c-0.1,0-1.3,0-1.3,0l-0.8-1.6l1.1-2.1l2.4-0.5l4.4-1.9c0,0-0.1-0.8-0.1-1c0.1-0.2,2.6-2,2.6-2
	s2.1-0.4,2.2-0.4s1.8-2.1,1.8-2.1s-3.3,0.3-3.4,0.4c-0.1,0-3.5,2.9-3.5,2.9l-3.5,0.2l-1.3,1.2l-1.8-0.2l-1.3,1.9l-1.5,0l-1.8,1.1
	l-0.8-0.7l-1.4,0.2l-1.1,1.1c0,0-1.7,0.8-1.8,0.8c-0.1,0-1.3,0.4-1.3,0.4l-0.4-0.9l0.8-1.4l3.6-1.5l3-0.4l1-1.1l1.8-0.2
	c0,0,1.2-1.1,1.3-1.2c0.1-0.1,0.7-0.1,0.7-0.1l0.4,0.6c0,0,0.4-0.4,0.5-0.4s0.4-1,0.4-1l0.9,0.1c0,0,0.9-0.7,0.9-0.8
	s0.1-0.9,0.1-0.9l-1,0.2l-1.1,1.1l-1.1,0.4l-1-0.4l0.2-0.8l4-3.5c0,0,2.8-0.1,2.9-0.1c0.1,0,2.2-1.8,2.2-1.8l1.3,1l-0.1,1l-1.2,0.9
	l-0.2,0.8l3-1.4l0.1-1.2l1.8-1.1l1.6-0.8l-0.4-0.7l-1,0.5l-0.8,0.2c0,0,0.4-0.8,0.5-0.9s2.1-2,2.1-2l0.2-0.3l2.5-0.1l4.9-1.9
	l3.3-1.7l2.5-0.1l0.8-0.6l0.1-0.8l0-0.3l0.6-0.1l0.8-0.7l1-0.5l1.3,0.2l0.6,0.3l1.4-1l0.5-0.6l1.9-0.3l1.4-0.8l0-0.7l4.3-2.7
	l1.2-0.6l2.1,0.7l2.1-1.5l0.4,0.1c0,0,0.8,0.8,0.8,0.8s0.5,0,0.5,0h1l-0.2,0.5c0,0-0.4,0.5-0.2,0.5s0.4,0,0.4,0l1.2-1.9l-0.1-2.1
	l1.3-0.7l2-1.4l1.3-0.9c0,0,1.6-1.1,1.7-1.1c0.1,0,1.3-0.3,1.3-0.3l2.3-0.1c0,0,3.5-1.1,3.6-1.2c0.1,0,2.5-1.3,2.5-1.3
	s0.8-1.4,0.8-1.5s-0.9-0.5-0.9-0.5s-2.1,0.6-2.2,0.6c-0.1,0-3.4,1.1-3.8,1.1s-1.7-0.1-1.7-0.1l-1.4-0.4l-2.3,0.3l-2,2l-2,0.6
	l-1.6,0.4l-0.2,1l0,0.9l-1.5,0.2l-1.3,0.4l-0.9,1.1l-0.8,0.4l-0.9-0.3l-0.1-0.8l-1.1,0.4l-1.4,1l-1,0.6l0.4,1.3c0,0-1.5,0.5-1.6,0.6
	c-0.1,0.1-1.9,1.4-1.9,1.4l-1.9-0.2l-0.8,0.3l-1.2,1.2l-4.3,1.7l-3.4,1.4l-1.3-0.4l-1.4,0.5l-0.7,0.4l-1.4-0.2l-1.7,0.7l-1.8,0.6
	l-1.2,0.4l-0.5-0.5l0.3-0.7l0.1-1.3c0,0,1-0.4,1.1-0.5c0.1-0.1,2.7-1.4,2.7-1.4s1.5-0.3,1.6-0.3c0.1,0,1.4-0.1,1.4-0.1l1.3-0.3
	l1.1-0.6c0,0,0.3-0.6,0.4-0.6s1.3,0.2,1.3,0.2l1.7-0.2l1-0.8l-0.2-1l-2.2-0.1l-0.8,0.3l-1.3,0.2l-1.1,0.5l-0.9,0.7
	c0,0-1.6,0.3-1.9,0.2c-0.2,0-1.3-0.3-1.3-0.3l-0.8,0l-0.1-0.5l3.3-1.6l3.6-1.8l0.8-1.4l2.2-1l2.2-0.6l0.8-1l-1.2-0.2
	c0,0-1,0.6-1.1,0.6s-2.7,0.7-2.7,0.7l-1.4,0.8c0,0-1.3,0-1.4,0s-1.9,0.5-1.9,0.5s-1,0.6-1.2,0.8s-0.5,0.4-0.5,0.4s-1.4-0.2-1.6-0.2
	s-1.5,0.4-1.5,0.4l-1,0.8l-0.9-0.4l-0.6-0.1l-1,2.3l-0.2,1.7H406l-0.3,0.4l-0.9,0.6h-1.3l-1.4-0.6l-0.4,0.1l-1.1-0.1l-0.6,0.3
	l-1.2-0.3l-2.1-0.3c0,0-0.2,1.4-0.5,1.5s-2.1,0.2-2.1,0.2l-2.3,1.4c0,0-1.1-0.3-0.4-1.2s2.3-2.4,2.3-2.4s0.9-0.5,0-0.4
	s-2.9,1.2-2.9,1.2l-6.3,2.1c0,0-1.9,0.4-2,1.1s-0.2,1.2-0.2,1.2l-2.3-0.1l-1.6,1.8l-2.9-0.1c0,0-1,0.6-1.1,1.2
	c-0.2,0.7-0.4,1.1-0.4,1.1l-2.7-0.1l-0.5,1.1l-5.7,2.6l0,0.9l-0.7,0.7l-1.8-0.4L358,40l-0.1,1.1l-0.5,0.7l-1,0.1l-2.1-0.3l-2.8,2.3
	l-0.2,0.9l-0.2,0.5l-2,0.1l-1,1.2l-5,2.1l-0.4,1.4l-0.6,0.4l-1.4-0.3l-5,1.7l-0.4,1.9l-1.2,0.3l-1.7-0.3l-1.9,1l-2.5,0l-0.6,2.1
	l-3.2,1.9l-2.3,0.3l-1,1.7l-3.9,0.3l0.9,1.3l-0.6,1l-2-1l-0.9,2.2l-1.8-1.3l-6.2,2.3l-5,3.5L280.7,78l-1.3,2.2l-1.1-1.6l-4.9,2.8
	l-8.9,2.7v-1l2.6-1.5l6.2-2l6.3-5l1.6-0.4l12.6-7.8l0.2-1.9l8.8-5.1l2.2,1.3l5.7-4.1H310l-3.6,2h-0.7l-1-0.7l0.1-0.8l1.2-0.9
	l0.1-0.9l-3.8,1.9l-4.8,2.4l-0.8,0.9l-1.9,0l-13.8,6.9l-2.2,0.1l-1,0.8l-2.5,0.4l-4,1.9l-0.7-0.3l-18.5,8.6l-0.9-0.3l0.4-1l2.6-2.2
	l14-8.2l0.2,0.5l3.6-1.5l1.1,0.1l4-2.4l0.2-0.6l-1.7,0l0-0.5l-0.5-0.6c0,0-1,1-1,1.1c-0.1,0.1-9.9,4.7-9.9,4.7l-3.6-0.1l-1.5,1.8
	l-2.7,0.8l-14.4,7l-4.9,2.3l-0.5-0.1l0.5-1l6.1-3.5l-1.4-0.3l0.2-1.5l1-0.8l0.8,0l2-1.3l1.2-0.5l-0.5,1.3l-2,1.9l0.1,0.9l3.2-2
	l0.4-1l2.1-0.4l0.8-0.5l0.1-1l-0.9,0.2l-0.8,0l0.7-0.5l2.3-1.6l0.6,0.6l1.4-1.1l1.3-0.4l0.7-1.3l5.4-3l-0.3-0.1l-4.2,3.8H256
	l-12.5,4.7l-2.3-0.5l-4.6,2.3l-4.8,2.4l-1.7,1.1l-2.9,1l-2,1.3l-3.7,1.9L220,80l0.8-1.3l3.9-1.7l1.1-1.1l2.2-0.6l1.9-0.8l0.4-1.3
	l1.5-0.5l4.5-2.4l0.3,0.5l1.1,0.8h2.3l0.7-2.5l0.7-0.9l1.2-0.8l0.5,0l0.3-1.4l-2.4,0.5L223.3,75L208,81.5l-13,6.8l-0.7-0.4l0.6-1
	l5.6-3l0.6-1.8l-8.9,5.6l-1.5-0.2l-14,6.7l-7.7,2.6l-6.9,2l-16.7-0.3c0,0-28.9,0.3-40,3.1c-11,2.8-32.5,11.7-38.8,18.1
	c-6.3,6.5-20.2,17.8-24.4,28.4S33.9,168,33.9,168l0.8,0.3l0,2.5l0.5-1.1c0.9-3.5,6.3-19,16-32.5c7.9-11,19.4-19.6,27.7-23.6
	c25.1-14.2,59.4-14.9,77.7-8c2.2,0.8,8.4,3.9,8.4,3.9l-0.7,1l-1.3-1.2l-1.1,0.1l-1.2,1l-1.7-1.3l-8.2-0.2l-0.2,0.5l2.2,0.4l0.4,0.6
	l-1,0.6l-9.8,0.7l-1.2,0.8H137l-0.8-2.8l0.8-1.1l8.9,0.5l1.2,0.4h2.4V106l-14.8-0.1l-0.8-0.4l-13.7,1.2l-1,1.8H114h-3.1l7.3-0.3
	l-1.1,1l2.5,0l1,0.4l7.5-0.1l1.4,0.6l2.9,0.3l-0.3,1l-1.3,0.6l-14.3,0.3l-3,1l0.1,0.4l6.2,0.1l1.8,0.9l1.3,0.1l2.6,2.2l1.6,1
	l4.1,1.5l-3,0.8l1.9,2.3l1.3,0.2l-0.3,1.9l-2.8-0.1l-14.3,7.7l-2.6,2.7l-5.1,2.1l-8.6,5.1l-3.5,3.4l-2.2,1.2l-4.5,5.1l-0.3,1.2
	l3.4-3.2l0.8-0.2l-0.1,0.8l-0.3,1.6l4.6-4.3l2.7-0.3l0.2-0.6l1.8,0.5l-2.7,2.4l-0.3,1.1l1.5-1.2l0.3,1.1l-2.6,2.8l-2.9,0.7l-6.7,6.9
	v1.9l0.3,1.3l1.4-0.2l2.8-2l0.3-1.3l2.7-0.1l1.6-0.9l4-2.5h1.3l9.4-8.8l0.7,0.5l-5.3,4.3l-0.1,0.7l3.1-1.7l4.6-1l-0.3,1.1l-1.8,1.6
	l-0.8-0.7l-1.6,1.3l0.8,1.1l1.8-0.7l-0.7,1.2l-3.8,3.1l-3.1,2.9l-1.1,0.7l-1.3-0.7l-2.8,1.2l-2.3,1.1v0.3l0.7,0.7l0.3-1.3l-0.9,0.1
	L96,166l-3.7,3.2l-0.2,1.8l-3,4.8l-1.1,2.7l3-1.8l3.8-2.3l1.8-2.5l2.3-1.7l3.5-4.2l1.8-1.6l4.1-3.8l3.3-2.7l1.3-1.3l1.3-0.4
	l-0.2,1.4l-12.3,11.8l2.7,0.2l0.4-0.9l1-1.3l1.7-0.2l1.3-1.4l2-1l0.9-0.8l2.7,0.3l1.2-1.3l0.7-1.1l13-6.8l4.8-0.8l3-0.8l4.6,0.8
	l-1.6,1.7l-10.8,5.5l-12.2,9.1l-9.8,10.3l2.3-0.7l2.6-0.2l-1.3,1.4l-0.7,1.2l0.4,0.6l3.3-1.3l5.3,0.1l2.3-2l4,0.3l-2.3,2.2l-0.7,0.8
	l2-0.3l2.2-1.2l1.7-1l4.2-0.5l5.3-3.3l12.1-4.1l5.1-1.5h2.3l1.3-1.4l2.8-1.1c0,0,2-1,2.3-1.1c0.3-0.1,6.4,4.3,6.4,4.3l-0.2,1.3
	l-1,0.4l0.2,0.8l0.8,0.8l-0.3,1.2l-0.5,1.7l0.9,2.3l-1.8,0.8l-2.8,1.7l-2.8,5.9v0.8l-0.4,1.7l0-0.3l-0.1,2.6l-3.5,4.2l-0.9-0.3
	l0.5-1l0.1-0.8l-2.7,1.9l-7.7,8.5l-13,7.4l-12.7,7.8l-17.2,8l-20.7,0.8l0.3,1.7l11.1,0.4l2.6,1.7l10.3-1.9l7.9-0.9l1.8-1.3
	c0,0,0.4,0.6,0.3,0.9c-0.1,0.3-1.8,1.2-1.8,1.2l-2.6,0l-0.4,0.1l1.6,1l2.5,0.2l0.8,0.7l-1.2,0.7l-5.3,0.7l-1.5,1.8l-2.3-0.7
	l-0.1-1.1l0.9-0.8l0.5-0.4V234l0.7-1.2l-1.5,0.6l-1.6,0.9l-2.3-0.1l-1.1,1.1l-5.6-0.6l-2.1,0.3l-0.7,0.1l1.1-1.5l-2.2-0.5l-8,0.1
	l-5.6-1.1l-7.2-0.1l-0.7-0.6l-3.7-0.3l-3.4-0.3v0.1l3,1.5l-1,0.5l-5.1-0.8l-2.1,0.9l-0.3,1l1.6,1.6v0.3l-0.9,0.8l-3.7-1.6l-2.6,1.2
	l0.3,1.2v1.5l-0.2,0.7l1.1,0.8H52l-0.1-0.2l1,0.3l1.9,0.2l0.8,0.9l-1.4,0l-2.3-0.4l0.3,0.9l1.5,0.3l0.5,1l-0.8,0.2l-1.7,0.2l0.4,0.8
	l1,0.5l1.9,1.1l0.4,1.3L60,251l-0.3,2.5H59l0.4-0.7l2.3,0.9l-0.2,0.6l-2-0.5l0.4,0.5l1.5,1l1.7,0.2l0.7-0.5c0,0,0.2-0.1,0.4-0.1
	c0.3,0,1.2,1.9,1.2,1.9l6.6,2.7H73l-1.3-2.3l-1.8-1l-0.7-1.1l1.7-0.5l2.2,0.1l1.2,1l4.5,0.6l5.3-0.4l1.7,0.3l-0.3,0.9l-1.4-0.1
	l0.5,0.7c0,0,0.6,0.2,1.3,0.2c0.7,0,4.6,2.8,4.6,2.8l-0.7,1.8H86l1.8,0.3l3.3-0.5l0.4,0l2.5,0.6l-1.1,0.5l-3,0.2l-1.3-0.3l-1.2,0.3
	l0.9,0.5l2.5,0.5l6.8,0.8l0.5,0.8L91,267l-0.8,0.9l-2.8,0.2l0.3,2l3.6,2.5H93l2.6-0.1l-0.7,0.2l-3.2-0.6"/>
<linearGradient id="XMLID_14_" gradientUnits="userSpaceOnUse" x1="99.9375" y1="199.3698" x2="151.0417" y2="199.3698">
	<stop  offset="0" style="stop-color:#7EA8D5"/>
	<stop  offset="1" style="stop-color:#119192"/>
</linearGradient>
<path id="XMLID_12_" class="st6" d="M103,196.3l-1.6,1.2l0.3,0.5l3.8-2.1l0.7,0.4l-2.7,1.7l-0.3,0.7l0.5,0.1l0.3,0.6l-0.5,0.7
	c0,0-0.4,0-0.6,0c-0.9,0.1-2.5,1.6-2.1,1.7l1.9-0.5l0.4-0.6l0.4,0.9l-1.3,0.8l-1.8,0.8l-0.7,0.6l0.2,0.6l2.4-0.2
	c0,0,2.1-1.6,2.5-1.6s0.3,0.6,0.3,0.6l-1.6,1.1l-1.8,0.9l-0.7,1.4l1.2-0.1l2.8-1.6l1.1,0.3l-0.8,0.8l-2.3,1.4l1.3,1.2h1.4l2.9-1
	l-0.8,0.9l-1.5,0.7l-1.3,1.4l-0.2,0.5l0.7,0.1l0.1,0.7l0.5,0.1l-0.1,0.8l0.7-0.1l0.1,0.6l1.4,0.2l0.2-0.2l0.9-0.1l0,0.8l-2.2,1.3
	l-1.1,0.2l-1.4,0.9l-0.4,0.7l6.6-0.6l4.3-0.9l3.6-0.9l1.6-1.1l0.6,0c0,0,0.1,0.5,0,0.7s-1.1,0.9-1.1,1s-0.5,1.1-0.5,1.1l0.2,0.4
	l1.2-0.4c0,0-0.2,0.4-0.2,0.5s-1.1,0.6-1.1,0.6l-0.7,0.3l0.7,1l0.9,0l10.1-4.5l7.2-3.4l8-6.3l3-3.6l0.4-1.6l-0.8,0l-1.3,1.2
	l-0.6,0.1l1.3-1.7l0.2-1.6l-0.7,0c0,0-1.4,1.3-1.6,1.4c-0.1,0.1-0.7,0-0.7,0l0.2-0.8l0.2-0.1c0,0,0.1-0.6-0.2-0.6
	c-0.3,0-0.9,0.1-0.9,0.1l-0.5,0.5c0,0-0.4-0.4-0.3-0.4c0.1,0,2-1.6,2-1.6s2.7-2.7,2.8-2.7s1.2-2,1.3-2.1s1-2,1-2l0.1-0.9l-1.2,1
	l-2.7,3.3l-2.7,2.6l-1.3,0.4l0.2-0.6c0,0,0.8-0.6,0.9-0.6c0.1-0.1,1.1-1.7,1.1-1.7l0.1-1.8l-0.9,0.1l-1.6,2l-1.9,2.3l-1.6,0.9
	c0,0-1.2,1.3-1.3,1.5c0,0.2-0.8,1.2-0.8,1.2l-2.9,2l-0.7,0.6l-1.4,0.6l-0.8,0.2l0.2-0.4l4.1-4.1c0,0,2-1,2.1-1.2
	c0.1-0.2,1.8-2.1,1.9-2.2c0.1-0.1,0.4-1.2,0.4-1.2l2.2-1.9l1.1-0.4l2.3-2.9l0-2.6l1.1-1.4l-1-0.2l0.2-1.1l-0.6,0l-1.2,0.8l-0.7,0
	l0.3-0.5l0.7-0.4l-0.1-1.1l-1.2,0.5l-1.3,0.9l-0.5-0.1l0.5-0.7l-0.6-0.1H141l-1.3,0.2l0.2-1.1l-1.1-0.4l-1.3,1l-3.5,2.1l-4.9,2.3
	l-3.9,2.8l-0.7,0.6l-3.1,0.1l-2.7,1.2l-4.5,2.4l-1,0l1.6-1l1.9-1.9l0-1l-2.3,1.1l-8.6,4.7L103,196.3z"/>
<linearGradient id="XMLID_15_" gradientUnits="userSpaceOnUse" x1="29.4504" y1="208.3602" x2="43.2462" y2="208.3602">
	<stop  offset="0" style="stop-color:#7EA8D5"/>
	<stop  offset="1" style="stop-color:#119192"/>
</linearGradient>
<path id="XMLID_6_" class="st7" d="M35.8,172.8c0.5,0.2-0.5,3.7-1,7.4c-0.5,3.4-0.1,7-0.3,7.7c-0.5,1.4-1.6-0.4-1.9,0.1
	c-5.6,26,9.4,53.4,10.6,55.6c0,2.9-17.7-32.3-13-56.1c0.8-0.5,1-2,1-2.4c0.1-0.5-0.5-2-0.2-2.5c1.1-1.7,1.2-6.1,1.8-7.5
	c0.2-0.3,1.2,0.2,1.5,0C35,174.8,35.2,172.7,35.8,172.8z"/>
</svg>
